<?xml version="1.0" encoding="utf-8"?>
<!-- Generator: Adobe Illustrator 19.2.0, SVG Export Plug-In . SVG Version: 6.00 Build 0)  -->
<svg version="1.1" id="Layer_1" xmlns="http://www.w3.org/2000/svg" xmlns:xlink="http://www.w3.org/1999/xlink" x="0px" y="0px"
	 viewBox="0 0 1024 257" enable-background="new 0 0 1024 257" xml:space="preserve">
<g>
	<g>
		<path fill="#7DC143" d="M128.5,0C57.6,0,0,57.6,0,128.5C0,199.4,57.6,257,128.5,257c70.9,0,128.5-57.6,128.5-128.5
			C257,57.6,199.4,0,128.5,0z M200.6,161.8V84.2c0-2.4-1.9-4.5-4.5-4.5l-19.5,0c-2.6,0-4.7,1.9-4.7,4.3l0,102.4h-9.1V95.3h-11.3
			c-2.4,0-4,1.4-4,3.6l0,81.1H112v-39.5l-13.1-12.8l-13,12.9l0,39.5H54.2v-39.5l-1.7-0.1c-2.4-0.2-7.3-1-11.5-5.1
			c-2.3-2.2-3.5-3.8-4.6-6.9c-2.3-6.3,0-10.8,1.4-13c0,0-3.3-2.8-3.2-10.1c0.2-8.2,6.4-16,15.5-17.2c3.4-0.4,6.3-0.1,9.2,1.5
			c0,0,2.3-5,11-5.9c15.7-1.6,26.3,13.9,21.9,23.5c0,0,0.8,0.8,2.6,2.5l-6.6,6.6c-5.7-5.6-6.4-6.5-6.4-6.5c2.4-3,2.5-5.7,2.5-5.7
			c0.6-6.1-6.2-11.9-12.4-11.6c-4.5,0.3-5.9,1.5-7.4,2.7c-2.4,1.8-3.4,4.2-3.4,4.2c-1.9-2-6.2-2.9-8.8-2.5c-5.1,0.9-8.7,4.5-8.7,9.7
			c0,6,5.7,8.7,5.7,8.7c-2.7,1.4-4.6,4.3-4.6,7.6c0,4.7,3.8,8.6,8.6,8.6l1.2,0.1h9.1V171l13.5,0l0-34.3l22.6-21.8l12.6,12.9V116
			l9.2,0v55l17.3,0V99c0-7.5,4.7-12.8,13.2-12.7l11.2,0l0-2.1c0,0-0.4-13.6,13.4-13.6h19.9c8.7,0,13.6,4.3,13.6,13.6l0,64.8
			c0,1.9,1.5,3.7,3.4,3.7h9.4v9.2H200.6z"/>
		<g>
			<g>
				<path fill="#666666" d="M1000.1,94.2L1000.1,94.2c0-6.6,5.3-12,12-12c6.7,0,11.9,5.4,11.9,11.9v0.1c0,6.5-5.3,12-12,12
					C1005.3,106.1,1000.1,100.8,1000.1,94.2z M1022.6,94.2L1022.6,94.2c0-5.9-4.5-10.6-10.5-10.6c-6,0-10.6,4.8-10.6,10.6v0.1
					c0,5.8,4.5,10.6,10.5,10.6C1018.1,104.8,1022.6,100,1022.6,94.2z M1005.7,94.1L1005.7,94.1c0-3.7,2.7-6.6,6.6-6.6
					c2.4,0,3.8,0.8,5,1.9l-1.8,2.1c-1-0.9-2-1.4-3.2-1.4c-2.1,0-3.6,1.7-3.6,3.9v0.1c0,2.1,1.5,3.9,3.6,3.9c1.4,0,2.3-0.6,3.3-1.5
					l1.8,1.8c-1.3,1.4-2.8,2.3-5.2,2.3C1008.5,100.6,1005.7,97.7,1005.7,94.1z"/>
			</g>
			<g>
				<path fill="#7DC143" d="M294.3,82.3h10.4v82.8h52v9.6h-62.5V82.3z"/>
				<path fill="#7DC143" d="M373.7,82.3h10.4v92.5h-10.4V82.3z"/>
				<path fill="#7DC143" d="M400,82.3h11.6l32.9,79.7l33-79.7h11.2L449,175.4h-9.2L400,82.3z"/>
				<path fill="#666666" d="M524.7,81.6h9.8l42.1,93.1h-11.2l-10.8-24.4h-50.3l-11,24.4h-10.7L524.7,81.6z M550.4,140.9l-21-47.2
					l-21.1,47.2H550.4z"/>
				<path fill="#666666" d="M591.5,82.3h39.4c10.6,0,18.9,3,24.2,8.2c3.8,4,5.9,8.9,5.9,14.8v0.3c0,12-7.4,18.2-14.7,21.4
					c11,3.3,19.8,9.6,19.8,22.3v0.3c0,15.9-13.3,25.2-33.6,25.2h-41.1V82.3z M629.2,123.5c12.6,0,21.3-5.7,21.3-16.5v-0.3
					c0-9.1-7.3-15.1-20.5-15.1h-28.1v31.8H629.2z M632.9,165.4c14,0,22.7-6.2,22.7-16.5v-0.3c0-10-8.5-15.9-24.6-15.9h-29.2v32.6
					H632.9z"/>
				<path fill="#666666" d="M684.5,82.3H695v92.5h-10.4V82.3z"/>
				<path fill="#666666" d="M718.7,82.3h10.4v82.8h52v9.6h-62.5V82.3z"/>
				<path fill="#666666" d="M798.1,82.3h10.4v92.5h-10.4V82.3z"/>
				<path fill="#666666" d="M856.8,91.9h-31v-9.6h72.7v9.6h-31v82.8h-10.6V91.9z"/>
				<path fill="#666666" d="M943.6,138.1l-38.4-55.9h12.7l31.2,46.2l31.4-46.2h12.2L954.1,138v36.7h-10.6V138.1z"/>
			</g>
		</g>
	</g>
</g>
</svg>
