<?xml version="1.0" encoding="utf-8"?>
<!-- Generator: Adobe Illustrator 19.2.1, SVG Export Plug-In . SVG Version: 6.00 Build 0)  -->
<svg version="1.1" baseProfile="tiny" id="Layer_1" xmlns="http://www.w3.org/2000/svg" xmlns:xlink="http://www.w3.org/1999/xlink"
	 x="0px" y="0px" viewBox="0 0 228.1 57.2" xml:space="preserve">
<g>
	<g>
		<path fill="#FFFFFF" d="M28.6,0C12.8,0,0,12.8,0,28.6c0,15.8,12.8,28.6,28.6,28.6c15.8,0,28.6-12.8,28.6-28.6
			C57.2,12.8,44.4,0,28.6,0z M44.7,36.1V18.8c0-0.5-0.4-1-1-1l-4.3,0c-0.6,0-1,0.4-1,1l0,22.8h-2V21.2h-2.5c-0.5,0-0.9,0.3-0.9,0.8
			l0,18.1H25v-8.8L22,28.5l-2.9,2.9l0,8.8h-7.1v-8.8l-0.4,0c-0.5,0-1.6-0.2-2.6-1.1c-0.5-0.5-0.8-0.8-1-1.5c-0.5-1.4,0-2.4,0.3-2.9
			c0,0-0.7-0.6-0.7-2.3c0-1.8,1.4-3.6,3.4-3.8c0.8-0.1,1.4,0,2,0.3c0,0,0.5-1.1,2.4-1.3c3.5-0.3,5.8,3.1,4.9,5.2
			c0,0,0.2,0.2,0.6,0.6l-1.5,1.5c-1.3-1.3-1.4-1.4-1.4-1.4c0.5-0.7,0.6-1.3,0.6-1.3c0.1-1.4-1.4-2.7-2.8-2.6c-1,0.1-1.3,0.3-1.6,0.6
			c-0.5,0.4-0.7,0.9-0.7,0.9c-0.4-0.4-1.4-0.7-2-0.6c-1.1,0.2-1.9,1-1.9,2.2c0,1.3,1.3,1.9,1.3,1.9c-0.6,0.3-1,1-1,1.7
			c0,1.1,0.9,1.9,1.9,1.9l0.3,0h2v8.8l3,0l0-7.6l5-4.9l2.8,2.9v-2.6l2.1,0v12.3l3.9,0v-16c0-1.7,1-2.8,2.9-2.8l2.5,0l0-0.5
			c0,0-0.1-3,3-3h4.4c1.9,0,3,0.9,3,3l0,14.4c0,0.4,0.3,0.8,0.8,0.8h2.1v2.1H44.7z"/>
		<g>
			<g>
				<path fill="#666666" d="M222.8,21L222.8,21c0-1.5,1.2-2.7,2.7-2.7c1.5,0,2.7,1.2,2.7,2.6v0c0,1.4-1.2,2.7-2.7,2.7
					C223.9,23.6,222.8,22.4,222.8,21z M227.8,21L227.8,21c0-1.3-1-2.4-2.3-2.4c-1.3,0-2.4,1.1-2.4,2.4v0c0,1.3,1,2.4,2.3,2.4
					C226.8,23.3,227.8,22.3,227.8,21z M224,21L224,21c0-0.8,0.6-1.5,1.5-1.5c0.5,0,0.9,0.2,1.1,0.4l-0.4,0.5
					c-0.2-0.2-0.4-0.3-0.7-0.3c-0.5,0-0.8,0.4-0.8,0.9v0c0,0.5,0.3,0.9,0.8,0.9c0.3,0,0.5-0.1,0.7-0.3l0.4,0.4
					c-0.3,0.3-0.6,0.5-1.2,0.5C224.6,22.4,224,21.8,224,21z"/>
			</g>
			<g>
				<path fill="#FFFFFF" d="M65.6,18.3h2.3v18.5h11.6v2.1H65.6V18.3z"/>
				<path fill="#FFFFFF" d="M83.2,18.3h2.3v20.6h-2.3V18.3z"/>
				<path fill="#FFFFFF" d="M89.1,18.3h2.6L99,36.1l7.4-17.7h2.5L100,39.1H98L89.1,18.3z"/>
				<path fill="#666666" d="M116.9,18.2h2.2l9.4,20.7h-2.5l-2.4-5.4h-11.2l-2.4,5.4h-2.4L116.9,18.2z M122.6,31.4l-4.7-10.5
					l-4.7,10.5H122.6z"/>
				<path fill="#666666" d="M131.8,18.3h8.8c2.4,0,4.2,0.7,5.4,1.8c0.9,0.9,1.3,2,1.3,3.3v0.1c0,2.7-1.6,4.1-3.3,4.8
					c2.4,0.7,4.4,2.1,4.4,5v0.1c0,3.5-3,5.6-7.5,5.6h-9.2V18.3z M140.2,27.5c2.8,0,4.7-1.3,4.7-3.7v-0.1c0-2-1.6-3.4-4.6-3.4h-6.3
					v7.1H140.2z M141,36.8c3.1,0,5.1-1.4,5.1-3.7v-0.1c0-2.2-1.9-3.5-5.5-3.5h-6.5v7.3H141z"/>
				<path fill="#666666" d="M152.5,18.3h2.3v20.6h-2.3V18.3z"/>
				<path fill="#666666" d="M160.1,18.3h2.3v18.5H174v2.1h-13.9V18.3z"/>
				<path fill="#666666" d="M177.8,18.3h2.3v20.6h-2.3V18.3z"/>
				<path fill="#666666" d="M190.9,20.5h-6.9v-2.1h16.2v2.1h-6.9v18.5h-2.4V20.5z"/>
				<path fill="#666666" d="M210.2,30.8l-8.6-12.4h2.8l6.9,10.3l7-10.3h2.7l-8.6,12.4v8.2h-2.4V30.8z"/>
			</g>
		</g>
	</g>
</g>
</svg>
