<?xml version="1.0" encoding="utf-8"?>
<!-- Generator: Adobe Illustrator 19.2.0, SVG Export Plug-In . SVG Version: 6.00 Build 0)  -->
<svg version="1.1" id="Layer_1" xmlns="http://www.w3.org/2000/svg" xmlns:xlink="http://www.w3.org/1999/xlink" x="0px" y="0px"
	 viewBox="0 0 275.1 57.2" enable-background="new 0 0 275.1 57.2" xml:space="preserve">
<g display="none">
	<g display="inline">
		<path fill="#7DC143" d="M65.6,18.3h2.3v18.5h11.6v2.1H65.6V18.3z"/>
		<path fill="#7DC143" d="M83.2,18.3h2.3v20.6h-2.3V18.3z"/>
		<path fill="#7DC143" d="M89.1,18.3h2.6L99,36.1l7.4-17.7h2.5L100,39.1H98L89.1,18.3z"/>
		<path fill="#666666" d="M116.9,18.2h2.2l9.4,20.7h-2.5l-2.4-5.4h-11.2l-2.4,5.4h-2.4L116.9,18.2z M122.6,31.4l-4.7-10.5l-4.7,10.5
			H122.6z"/>
		<path fill="#666666" d="M131.8,18.3h8.8c2.4,0,4.2,0.7,5.4,1.8c0.9,0.9,1.3,2,1.3,3.3v0.1c0,2.7-1.6,4.1-3.3,4.8
			c2.4,0.7,4.4,2.1,4.4,5v0.1c0,3.5-3,5.6-7.5,5.6h-9.2V18.3z M140.2,27.5c2.8,0,4.7-1.3,4.7-3.7v-0.1c0-2-1.6-3.4-4.6-3.4h-6.3v7.1
			H140.2z M141,36.8c3.1,0,5.1-1.4,5.1-3.7v-0.1c0-2.2-1.9-3.5-5.5-3.5h-6.5v7.3H141z"/>
		<path fill="#666666" d="M152.5,18.3h2.3v20.6h-2.3V18.3z"/>
		<path fill="#666666" d="M160.1,18.3h2.3v18.5H174v2.1h-13.9V18.3z"/>
		<path fill="#666666" d="M177.8,18.3h2.3v20.6h-2.3V18.3z"/>
		<path fill="#666666" d="M190.9,20.5h-6.9v-2.1h16.2v2.1h-6.9v18.5h-2.4V20.5z"/>
		<path fill="#666666" d="M210.2,30.8l-8.6-12.4h2.8l6.9,10.3l7-10.3h2.7l-8.6,12.4v8.2h-2.4V30.8z"/>
	</g>
	<g display="inline">
		<path fill="#231F20" d="M65.6,18.3h2.3v18.5h11.6v2.1H65.6V18.3z"/>
		<path fill="#231F20" d="M83.2,18.3h2.3v20.6h-2.3V18.3z"/>
		<path fill="#231F20" d="M89.1,18.3h2.6L99,36.1l7.4-17.7h2.5L100,39.1H98L89.1,18.3z"/>
		<path fill="#231F20" d="M116.9,18.2h2.2l9.4,20.7h-2.5l-2.4-5.4h-11.2l-2.4,5.4h-2.4L116.9,18.2z M122.6,31.4l-4.7-10.5l-4.7,10.5
			H122.6z"/>
		<path fill="#231F20" d="M131.8,18.3h8.8c2.4,0,4.2,0.7,5.4,1.8c0.9,0.9,1.3,2,1.3,3.3v0.1c0,2.7-1.6,4.1-3.3,4.8
			c2.4,0.7,4.4,2.1,4.4,5v0.1c0,3.5-3,5.6-7.5,5.6h-9.2V18.3z M140.2,27.5c2.8,0,4.7-1.3,4.7-3.7v-0.1c0-2-1.6-3.4-4.6-3.4h-6.3v7.1
			H140.2z M141,36.8c3.1,0,5.1-1.4,5.1-3.7v-0.1c0-2.2-1.9-3.5-5.5-3.5h-6.5v7.3H141z"/>
		<path fill="#231F20" d="M152.5,18.3h2.3v20.6h-2.3V18.3z"/>
		<path fill="#231F20" d="M160.1,18.3h2.3v18.5H174v2.1h-13.9V18.3z"/>
		<path fill="#231F20" d="M177.8,18.3h2.3v20.6h-2.3V18.3z"/>
		<path fill="#231F20" d="M190.9,20.5h-6.9v-2.1h16.2v2.1h-6.9v18.5h-2.4V20.5z"/>
		<path fill="#231F20" d="M210.2,30.8l-8.6-12.4h2.8l6.9,10.3l7-10.3h2.7l-8.6,12.4v8.2h-2.4V30.8z"/>
	</g>
</g>
<g>
	<path fill="#FFFFFF" d="M65.6,18.3h2.3v18.5h11.6v2.1H65.6V18.3z"/>
	<path fill="#FFFFFF" d="M83.2,18.3h2.3v20.6h-2.3V18.3z"/>
	<path fill="#FFFFFF" d="M89.1,18.3h2.6L99,36.1l7.4-17.7h2.5L100,39.1H98L89.1,18.3z"/>
	<path fill="#666666" d="M116.9,18.2h2.2l9.4,20.8h-2.5l-2.4-5.4h-11.2l-2.4,5.4h-2.4L116.9,18.2z M122.6,31.4l-4.7-10.5l-4.7,10.5
		H122.6z"/>
	<path fill="#666666" d="M131.8,18.3h8.8c1.2,0,2.2,0.2,3.1,0.5c0.9,0.3,1.7,0.8,2.2,1.3c0.9,0.9,1.3,2,1.3,3.3v0.1
		c0,0.7-0.1,1.3-0.3,1.8c-0.2,0.5-0.4,1-0.7,1.4c-0.3,0.4-0.7,0.7-1,1s-0.8,0.5-1.2,0.7c0.6,0.2,1.2,0.4,1.7,0.7
		c0.5,0.3,1,0.6,1.4,1c0.4,0.4,0.7,0.9,0.9,1.4c0.2,0.5,0.4,1.2,0.4,1.9v0.1c0,0.9-0.2,1.7-0.5,2.4c-0.4,0.7-0.9,1.3-1.5,1.8
		c-0.7,0.5-1.4,0.9-2.4,1.1s-1.9,0.4-3.1,0.4h-9.1V18.3z M140.2,27.5c1.4,0,2.5-0.3,3.4-0.9s1.3-1.5,1.3-2.7v-0.1
		c0-1-0.4-1.8-1.2-2.4s-1.9-0.9-3.4-0.9h-6.3v7.1H140.2z M141,36.8c1.6,0,2.8-0.3,3.7-1s1.4-1.5,1.4-2.7v-0.1c0-1.1-0.5-2-1.4-2.6
		c-0.9-0.6-2.3-0.9-4.1-0.9h-6.5v7.3H141z"/>
	<path fill="#666666" d="M152.5,18.3h2.3v20.6h-2.3V18.3z"/>
	<path fill="#666666" d="M160.1,18.3h2.3v18.5H174v2.1h-13.9V18.3z"/>
	<path fill="#666666" d="M177.8,18.3h2.3v20.6h-2.3V18.3z"/>
	<path fill="#666666" d="M190.9,20.5h-6.9v-2.1h16.2v2.1h-6.9v18.5h-2.3V20.5z"/>
	<path fill="#666666" d="M210.2,30.8l-8.6-12.5h2.8l6.9,10.3l7-10.3h2.7l-8.6,12.4v8.2h-2.3V30.8z"/>
	<path fill="#666666" d="M219.5,35.8h2.7v3.1h-2.7V35.8z"/>
	<path fill="#666666" d="M231.8,39.2c-1,0-2-0.2-2.9-0.6c-0.9-0.4-1.6-0.9-2.3-1.6c-0.6-0.7-1.2-1.5-1.5-2.4
		c-0.4-0.9-0.5-1.9-0.5-2.9v0c0-1,0.2-2,0.5-2.9c0.4-0.9,0.9-1.7,1.5-2.4c0.6-0.7,1.4-1.2,2.3-1.6c0.9-0.4,1.9-0.6,2.9-0.6
		c0.7,0,1.3,0.1,1.8,0.2c0.5,0.1,1,0.3,1.5,0.5c0.5,0.2,0.9,0.4,1.3,0.7c0.4,0.3,0.8,0.6,1.1,0.9l-1.1,1.2c-0.6-0.6-1.3-1.1-2-1.4
		c-0.7-0.4-1.6-0.6-2.5-0.6c-0.8,0-1.5,0.2-2.2,0.5c-0.7,0.3-1.3,0.7-1.8,1.3c-0.5,0.5-0.9,1.2-1.2,1.9c-0.3,0.7-0.4,1.5-0.4,2.3v0
		c0,0.8,0.1,1.6,0.4,2.3c0.3,0.7,0.7,1.3,1.2,1.9c0.5,0.5,1.1,1,1.8,1.3c0.7,0.3,1.4,0.5,2.2,0.5c1,0,1.8-0.2,2.6-0.5
		s1.4-0.9,2.1-1.5l1.1,1.1c-0.4,0.4-0.8,0.7-1.2,1c-0.4,0.3-0.8,0.6-1.3,0.8c-0.5,0.2-1,0.4-1.5,0.5C233,39.1,232.5,39.2,231.8,39.2
		z"/>
	<path fill="#666666" d="M246.2,39.2c-1.1,0-2.1-0.2-3-0.6s-1.7-0.9-2.3-1.6c-0.6-0.7-1.1-1.5-1.5-2.4c-0.4-0.9-0.5-1.8-0.5-2.8v0
		c0-1,0.2-1.9,0.5-2.8s0.9-1.7,1.5-2.4c0.6-0.7,1.4-1.2,2.3-1.6c0.9-0.4,1.9-0.6,3-0.6c1.1,0,2.1,0.2,3,0.6c0.9,0.4,1.7,0.9,2.3,1.6
		c0.6,0.7,1.1,1.5,1.5,2.4c0.3,0.9,0.5,1.8,0.5,2.8c0,0,0,0,0,0c0,1-0.2,1.9-0.5,2.8s-0.9,1.7-1.5,2.4s-1.4,1.2-2.3,1.6
		C248.3,39,247.3,39.2,246.2,39.2z M246.2,37.7c0.8,0,1.6-0.2,2.3-0.5c0.7-0.3,1.3-0.7,1.8-1.3c0.5-0.5,0.9-1.2,1.2-1.9
		c0.3-0.7,0.4-1.5,0.4-2.3v0c0-0.8-0.1-1.6-0.4-2.3s-0.7-1.3-1.2-1.9c-0.5-0.5-1.1-1-1.8-1.3c-0.7-0.3-1.5-0.5-2.3-0.5
		s-1.6,0.2-2.3,0.5c-0.7,0.3-1.3,0.7-1.8,1.3c-0.5,0.5-0.9,1.2-1.2,1.9c-0.3,0.7-0.4,1.5-0.4,2.3v0c0,0.8,0.1,1.6,0.4,2.3
		c0.3,0.7,0.7,1.3,1.2,1.9c0.5,0.5,1.1,1,1.8,1.3C244.6,37.5,245.4,37.7,246.2,37.7z"/>
	<path fill="#666666" d="M256.1,24.5h1.6l5.3,7.9l5.3-7.9h1.6v14.4h-1.6V27.2L263,35h-0.1l-5.3-7.7v11.7h-1.6V24.5z"/>
	<path fill="#666666" d="M273.4,38.9c-0.2,0-0.5,0-0.7-0.1c-0.2-0.1-0.4-0.2-0.6-0.4c-0.2-0.2-0.3-0.3-0.4-0.6
		c-0.1-0.2-0.1-0.4-0.1-0.7v0c0-0.2,0-0.5,0.1-0.7c0.1-0.2,0.2-0.4,0.4-0.6c0.2-0.2,0.3-0.3,0.6-0.4c0.2-0.1,0.4-0.1,0.7-0.1
		c0.2,0,0.5,0,0.7,0.1c0.2,0.1,0.4,0.2,0.6,0.4c0.2,0.2,0.3,0.3,0.4,0.6c0.1,0.2,0.1,0.4,0.1,0.7v0c0,0.2,0,0.5-0.1,0.7
		c-0.1,0.2-0.2,0.4-0.4,0.6c-0.2,0.2-0.3,0.3-0.6,0.4C273.9,38.9,273.6,38.9,273.4,38.9z M273.4,38.8c0.2,0,0.4,0,0.6-0.1
		c0.2-0.1,0.4-0.2,0.5-0.3c0.1-0.1,0.3-0.3,0.3-0.5c0.1-0.2,0.1-0.4,0.1-0.6v0c0-0.2,0-0.4-0.1-0.6c-0.1-0.2-0.2-0.4-0.3-0.5
		c-0.1-0.1-0.3-0.3-0.5-0.3c-0.2-0.1-0.4-0.1-0.6-0.1c-0.2,0-0.4,0-0.6,0.1c-0.2,0.1-0.4,0.2-0.5,0.3c-0.1,0.1-0.3,0.3-0.3,0.5
		c-0.1,0.2-0.1,0.4-0.1,0.6v0c0,0.2,0,0.4,0.1,0.6c0.1,0.2,0.2,0.4,0.3,0.5c0.1,0.1,0.3,0.3,0.5,0.3
		C272.9,38.7,273.1,38.8,273.4,38.8z M272.7,36.2h0.8c0.1,0,0.2,0,0.3,0.1c0.1,0,0.2,0.1,0.2,0.1c0,0,0.1,0.1,0.1,0.2
		c0,0.1,0,0.1,0,0.2v0c0,0.1,0,0.3-0.1,0.3c-0.1,0.1-0.2,0.1-0.3,0.2l0.6,0.7h-0.3l-0.5-0.7h0H273V38h-0.3V36.2z M273.5,37.1
		c0.1,0,0.2,0,0.3-0.1c0.1-0.1,0.1-0.1,0.1-0.2v0c0-0.1,0-0.2-0.1-0.2c-0.1-0.1-0.2-0.1-0.3-0.1H273v0.6H273.5z"/>
</g>
<path fill="#FFFFFF" d="M28.6,0C12.8,0,0,12.8,0,28.6c0,15.8,12.8,28.6,28.6,28.6c15.8,0,28.6-12.8,28.6-28.6
	C57.2,12.8,44.4,0,28.6,0z M44.7,36.1V18.8c0-0.5-0.4-1-1-1l-4.3,0c-0.6,0-1,0.4-1,1l0,22.8h-2V21.2h-2.5c-0.5,0-0.9,0.3-0.9,0.8
	l0,18.1H25v-8.8L22,28.5l-2.9,2.9l0,8.8h-7.1v-8.8l-0.4,0c-0.5,0-1.6-0.2-2.6-1.1c-0.5-0.5-0.8-0.8-1-1.5c-0.5-1.4,0-2.4,0.3-2.9
	c0,0-0.7-0.6-0.7-2.3c0-1.8,1.4-3.6,3.4-3.8c0.8-0.1,1.4,0,2,0.3c0,0,0.5-1.1,2.4-1.3c3.5-0.3,5.8,3.1,4.9,5.2c0,0,0.2,0.2,0.6,0.6
	l-1.5,1.5c-1.3-1.3-1.4-1.4-1.4-1.4c0.5-0.7,0.6-1.3,0.6-1.3c0.1-1.4-1.4-2.7-2.8-2.6c-1,0.1-1.3,0.3-1.6,0.6
	c-0.5,0.4-0.7,0.9-0.7,0.9c-0.4-0.4-1.4-0.7-2-0.6c-1.1,0.2-1.9,1-1.9,2.2c0,1.3,1.3,1.9,1.3,1.9c-0.6,0.3-1,1-1,1.7
	c0,1.1,0.9,1.9,1.9,1.9l0.3,0h2v8.8l3,0l0-7.6l5-4.9l2.8,2.9v-2.6l2.1,0v12.3l3.9,0v-16c0-1.7,1-2.8,2.9-2.8l2.5,0l0-0.5
	c0,0-0.1-3,3-3h4.4c1.9,0,3,0.9,3,3l0,14.4c0,0.4,0.3,0.8,0.8,0.8h2.1v2.1H44.7z"/>
</svg>
